<svg width="33" height="25" viewBox="0 0 33 25" fill="none" xmlns="http://www.w3.org/2000/svg">
<path d="M32.3514 13.6059L21.4157 24.5416C20.4393 25.518 18.7469 24.8345 18.7469 23.435V17.186H9.89419C9.02845 17.186 8.33195 16.4895 8.33195 15.6238V9.37483C8.33195 8.50909 9.02845 7.81259 9.89419 7.81259H18.7469V1.56362C18.7469 0.170627 20.4328 -0.519362 21.4157 0.457038L32.3514 11.3927C32.9568 12.0046 32.9568 12.994 32.3514 13.6059ZM12.4979 24.2161V21.6124C12.4979 21.1828 12.1464 20.8313 11.7168 20.8313H6.24896C5.09681 20.8313 4.16597 19.9004 4.16597 18.7483V6.25035C4.16597 5.09819 5.09681 4.16736 6.24896 4.16736H11.7168C12.1464 4.16736 12.4979 3.81585 12.4979 3.38624V0.782505C12.4979 0.352889 12.1464 0.00138444 11.7168 0.00138444H6.24896C2.79901 0.00138444 0 2.8004 0 6.25035V18.7483C0 22.1982 2.79901 24.9972 6.24896 24.9972H11.7168C12.1464 24.9972 12.4979 24.6457 12.4979 24.2161Z" fill="black"/>
</svg>
