<svg width="29" height="25" viewBox="0 0 29 25" fill="none" xmlns="http://www.w3.org/2000/svg">
<path d="M26.5894 14.7128L28.9694 4.55659C29.1413 3.82329 28.5666 3.125 27.7912 3.125H8.01568L7.5542 0.937012C7.43921 0.39165 6.94439 0 6.37039 0H1.20833C0.540981 0 0 0.524658 0 1.17187V1.95312C0 2.60034 0.540981 3.125 1.20833 3.125H4.72675L8.26354 19.8943C7.41741 20.3662 6.84722 21.2511 6.84722 22.2656C6.84722 23.7758 8.10953 25 9.66667 25C11.2238 25 12.4861 23.7758 12.4861 22.2656C12.4861 21.5003 12.1615 20.8088 11.6391 20.3125H22.1942C21.6718 20.8088 21.3472 21.5003 21.3472 22.2656C21.3472 23.7758 22.6095 25 24.1667 25C25.7238 25 26.9861 23.7758 26.9861 22.2656C26.9861 21.183 26.3372 20.2475 25.3962 19.8044L25.674 18.6191C25.8458 17.8858 25.2711 17.1875 24.4957 17.1875H10.9816L10.6521 15.625H25.4111C25.9753 15.625 26.4644 15.2464 26.5894 14.7128Z" fill="black"/>
</svg>
