<svg width="893" height="472" viewBox="0 0 893 472" fill="none" xmlns="http://www.w3.org/2000/svg">
<line x1="30" y1="13" x2="893" y2="13" stroke="#CFCFCF" stroke-width="2"/>
<line x1="30" y1="121" x2="893" y2="121" stroke="#CFCFCF" stroke-width="2"/>
<line x1="30" y1="229" x2="893" y2="229" stroke="#CFCFCF" stroke-width="2"/>
<line x1="30" y1="338" x2="893" y2="338" stroke="#CFCFCF" stroke-width="2"/>
<line x1="30" y1="446" x2="893" y2="446" stroke="#CFCFCF" stroke-width="2"/>
<circle cx="138" cy="273" r="7" fill="#666666"/>
<circle cx="785" cy="56" r="7" fill="#BAA7A9"/>
<circle cx="785" cy="56" r="7" fill="#BAA7A9"/>
<line x1="136.289" y1="271.858" x2="352.289" y2="401.858" stroke="#666666" stroke-width="5"/>
<line x1="568.932" y1="316.32" x2="354.932" y2="402.32" stroke="#8D868B" stroke-width="5"/>
<line x1="570.079" y1="314.4" x2="785.079" y2="56.3996" stroke="#BAA7A9" stroke-width="5"/>
<circle cx="354" cy="403" r="7" fill="#8D868B"/>
<circle cx="568" cy="316" r="7" fill="#BAA7A9"/>
<circle cx="568" cy="316" r="7" fill="#BAA7A9"/>
<path d="M22.9805 445.542C22.9805 447.446 22.6553 448.861 22.0049 449.787C21.3545 450.713 20.3379 451.176 18.9551 451.176C17.5898 451.176 16.5791 450.725 15.9229 449.822C15.2666 448.914 14.9268 447.561 14.9033 445.762V443.591C14.9033 441.71 15.2285 440.312 15.8789 439.398C16.5293 438.484 17.5488 438.027 18.9375 438.027C20.3145 438.027 21.3281 438.47 21.9785 439.354C22.6289 440.233 22.9629 441.593 22.9805 443.433V445.542ZM21.3545 443.318C21.3545 441.941 21.1611 440.939 20.7744 440.312C20.3877 439.68 19.7754 439.363 18.9375 439.363C18.1055 439.363 17.499 439.677 17.1182 440.304C16.7373 440.931 16.541 441.895 16.5293 443.195V445.797C16.5293 447.18 16.7285 448.202 17.127 448.864C17.5312 449.521 18.1406 449.849 18.9551 449.849C19.7578 449.849 20.3525 449.538 20.7393 448.917C21.1318 448.296 21.3369 447.317 21.3545 445.981V443.318Z" fill="#666666"/>
<path d="M82.4854 467V454.203H86.0977C87.2109 454.203 88.1953 454.449 89.0508 454.941C89.9062 455.434 90.5654 456.134 91.0283 457.042C91.4971 457.95 91.7344 458.993 91.7402 460.171V460.988C91.7402 462.195 91.5059 463.253 91.0371 464.161C90.5742 465.069 89.9092 465.767 89.042 466.253C88.1807 466.739 87.1758 466.988 86.0273 467H82.4854ZM84.1729 455.592V465.62H85.9482C87.249 465.62 88.2598 465.216 88.9805 464.407C89.707 463.599 90.0703 462.447 90.0703 460.953V460.206C90.0703 458.753 89.7275 457.625 89.042 456.822C88.3623 456.014 87.3955 455.604 86.1416 455.592H84.1729ZM98.5293 467.176C97.2402 467.176 96.1914 466.754 95.3828 465.91C94.5742 465.061 94.1699 463.927 94.1699 462.509V462.21C94.1699 461.267 94.3486 460.426 94.706 459.688C95.0693 458.943 95.5732 458.363 96.2177 457.947C96.8681 457.525 97.5712 457.314 98.3271 457.314C99.5634 457.314 100.524 457.722 101.21 458.536C101.895 459.351 102.238 460.517 102.238 462.034V462.711H95.7959C95.8193 463.648 96.0918 464.407 96.6132 464.987C97.1406 465.562 97.8086 465.849 98.6171 465.849C99.1914 465.849 99.6777 465.731 100.076 465.497C100.475 465.263 100.823 464.952 101.122 464.565L102.115 465.339C101.318 466.563 100.123 467.176 98.5293 467.176ZM98.3271 458.65C97.6709 458.65 97.1201 458.891 96.6748 459.371C96.2295 459.846 95.9541 460.514 95.8486 461.375H100.612V461.252C100.565 460.426 100.343 459.787 99.9443 459.336C99.5459 458.879 99.0068 458.65 98.3271 458.65ZM99.1181 453.5H101.087L98.7314 456.084H97.4218L99.1181 453.5ZM107.683 464.794L110.038 457.49H111.699L108.289 467H107.05L103.604 457.49H105.266L107.683 464.794ZM117.627 467.176C116.338 467.176 115.289 466.754 114.48 465.91C113.672 465.061 113.267 463.927 113.267 462.509V462.21C113.267 461.267 113.446 460.426 113.804 459.688C114.167 458.943 114.671 458.363 115.315 457.947C115.966 457.525 116.669 457.314 117.425 457.314C118.661 457.314 119.622 457.722 120.308 458.536C120.993 459.351 121.336 460.517 121.336 462.034V462.711H114.893C114.917 463.648 115.189 464.407 115.711 464.987C116.238 465.562 116.906 465.849 117.715 465.849C118.289 465.849 118.775 465.731 119.174 465.497C119.572 465.263 119.921 464.952 120.22 464.565L121.213 465.339C120.416 466.563 119.221 467.176 117.627 467.176ZM117.425 458.65C116.768 458.65 116.218 458.891 115.772 459.371C115.327 459.846 115.052 460.514 114.946 461.375H119.71V461.252C119.663 460.426 119.44 459.787 119.042 459.336C118.643 458.879 118.104 458.65 117.425 458.65ZM125.532 467H123.906V453.5H125.532V467ZM128.252 462.157C128.252 461.226 128.433 460.388 128.797 459.644C129.166 458.899 129.676 458.325 130.326 457.921C130.982 457.517 131.729 457.314 132.567 457.314C133.862 457.314 134.908 457.763 135.705 458.659C136.508 459.556 136.909 460.748 136.909 462.236V462.351C136.909 463.276 136.73 464.108 136.373 464.847C136.021 465.579 135.514 466.15 134.852 466.561C134.196 466.971 133.44 467.176 132.585 467.176C131.296 467.176 130.25 466.728 129.447 465.831C128.65 464.935 128.252 463.748 128.252 462.271V462.157ZM129.887 462.351C129.887 463.405 130.13 464.252 130.616 464.891C131.108 465.529 131.764 465.849 132.585 465.849C133.411 465.849 134.067 465.526 134.554 464.882C135.04 464.231 135.283 463.323 135.283 462.157C135.283 461.114 135.034 460.271 134.536 459.626C134.044 458.976 133.388 458.65 132.567 458.65C131.764 458.65 131.117 458.97 130.625 459.608C130.133 460.247 129.887 461.161 129.887 462.351ZM147.521 462.351C147.521 463.798 147.19 464.964 146.528 465.849C145.866 466.733 144.969 467.176 143.839 467.176C142.684 467.176 141.776 466.81 141.114 466.077V470.656H139.488V457.49H140.973L141.053 458.545C141.715 457.725 142.635 457.314 143.812 457.314C144.955 457.314 145.857 457.745 146.519 458.606C147.187 459.468 147.521 460.666 147.521 462.201V462.351ZM145.895 462.166C145.895 461.094 145.667 460.247 145.21 459.626C144.753 459.005 144.126 458.694 143.329 458.694C142.344 458.694 141.606 459.131 141.114 460.004V464.548C141.6 465.415 142.344 465.849 143.346 465.849C144.126 465.849 144.744 465.541 145.201 464.926C145.664 464.305 145.895 463.385 145.895 462.166ZM158.169 462.351C158.169 463.798 157.838 464.964 157.176 465.849C156.513 466.733 155.617 467.176 154.486 467.176C153.332 467.176 152.424 466.81 151.761 466.077V470.656H150.135V457.49H151.621L151.7 458.545C152.362 457.725 153.282 457.314 154.46 457.314C155.602 457.314 156.505 457.745 157.167 458.606C157.835 459.468 158.169 460.666 158.169 462.201V462.351ZM156.543 462.166C156.543 461.094 156.314 460.247 155.857 459.626C155.4 459.005 154.773 458.694 153.976 458.694C152.992 458.694 152.254 459.131 151.761 460.004V464.548C152.248 465.415 152.992 465.849 153.994 465.849C154.773 465.849 155.391 465.541 155.848 464.926C156.311 464.305 156.543 463.385 156.543 462.166ZM164.729 467.176C163.44 467.176 162.391 466.754 161.583 465.91C160.774 465.061 160.37 463.927 160.37 462.509V462.21C160.37 461.267 160.549 460.426 160.906 459.688C161.269 458.943 161.773 458.363 162.418 457.947C163.068 457.525 163.771 457.314 164.527 457.314C165.763 457.314 166.724 457.722 167.41 458.536C168.095 459.351 168.438 460.517 168.438 462.034V462.711H161.996C162.019 463.648 162.292 464.407 162.813 464.987C163.341 465.562 164.008 465.849 164.817 465.849C165.391 465.849 165.878 465.731 166.276 465.497C166.674 465.263 167.023 464.952 167.322 464.565L168.315 465.339C167.518 466.563 166.323 467.176 164.729 467.176ZM164.527 458.65C163.871 458.65 163.32 458.891 162.875 459.371C162.429 459.846 162.154 460.514 162.049 461.375H166.812V461.252C166.765 460.426 166.543 459.787 166.144 459.336C165.746 458.879 165.207 458.65 164.527 458.65ZM176.739 466.06C176.106 466.804 175.177 467.176 173.953 467.176C172.939 467.176 172.166 466.883 171.632 466.297C171.105 465.705 170.839 464.832 170.833 463.678V457.49H172.459V463.634C172.459 465.075 173.045 465.796 174.216 465.796C175.459 465.796 176.285 465.333 176.695 464.407V457.49H178.321V467H176.774L176.739 466.06ZM185.936 458.949C185.69 458.908 185.423 458.888 185.136 458.888C184.07 458.888 183.346 459.342 182.965 460.25V467H181.339V457.49H182.921L182.948 458.589C183.481 457.739 184.237 457.314 185.215 457.314C185.532 457.314 185.772 457.355 185.936 457.438V458.949ZM193.516 464.478C193.516 464.038 193.349 463.698 193.015 463.458C192.687 463.212 192.11 463.001 191.284 462.825C190.463 462.649 189.81 462.438 189.324 462.192C188.843 461.946 188.486 461.653 188.252 461.313C188.023 460.974 187.909 460.569 187.909 460.101C187.909 459.321 188.237 458.662 188.893 458.123C189.555 457.584 190.399 457.314 191.424 457.314C192.503 457.314 193.376 457.593 194.044 458.149C194.717 458.706 195.054 459.418 195.054 460.285H193.419C193.419 459.84 193.229 459.456 192.848 459.134C192.473 458.812 191.999 458.65 191.424 458.65C190.833 458.65 190.37 458.779 190.036 459.037C189.702 459.295 189.535 459.632 189.535 460.048C189.535 460.44 189.69 460.736 190.001 460.936C190.311 461.135 190.871 461.325 191.679 461.507C192.494 461.688 193.153 461.905 193.657 462.157C194.161 462.409 194.533 462.714 194.773 463.071C195.019 463.423 195.142 463.854 195.142 464.363C195.142 465.213 194.802 465.896 194.123 466.411C193.443 466.921 192.561 467.176 191.477 467.176C190.715 467.176 190.042 467.041 189.456 466.771C188.87 466.502 188.41 466.127 188.076 465.646C187.748 465.16 187.584 464.636 187.584 464.073H189.21C189.239 464.618 189.456 465.052 189.86 465.374C190.27 465.69 190.809 465.849 191.477 465.849C192.092 465.849 192.585 465.726 192.954 465.479C193.329 465.228 193.516 464.894 193.516 464.478Z" fill="#666666"/>
<path d="M317.182 465.62H323.246V467H315.485V454.203H317.182V465.62ZM329.402 467.176C328.113 467.176 327.064 466.754 326.256 465.91C325.447 465.061 325.043 463.927 325.043 462.509V462.21C325.043 461.267 325.222 460.426 325.579 459.688C325.942 458.943 326.446 458.363 327.091 457.947C327.741 457.525 328.444 457.314 329.2 457.314C330.436 457.314 331.397 457.722 332.083 458.536C332.769 459.351 333.111 460.517 333.111 462.034V462.711H326.669C326.692 463.648 326.965 464.407 327.486 464.987C328.014 465.562 328.682 465.849 329.49 465.849C330.064 465.849 330.551 465.731 330.949 465.497C331.348 465.263 331.696 464.952 331.995 464.565L332.988 465.339C332.191 466.563 330.996 467.176 329.402 467.176ZM329.2 458.65C328.544 458.65 327.993 458.891 327.548 459.371C327.102 459.846 326.827 460.514 326.722 461.375H331.485V461.252C331.438 460.426 331.216 459.787 330.817 459.336C330.419 458.879 329.88 458.65 329.2 458.65ZM341.412 467C341.318 466.812 341.242 466.479 341.184 465.998C340.428 466.783 339.525 467.176 338.476 467.176C337.539 467.176 336.768 466.912 336.165 466.385C335.567 465.852 335.268 465.178 335.268 464.363C335.268 463.373 335.643 462.605 336.393 462.061C337.149 461.51 338.21 461.234 339.575 461.234H341.157V460.487C341.157 459.919 340.987 459.468 340.647 459.134C340.308 458.794 339.807 458.624 339.144 458.624C338.564 458.624 338.078 458.771 337.685 459.063C337.293 459.356 337.097 459.711 337.097 460.127H335.462C335.462 459.652 335.629 459.195 335.963 458.756C336.303 458.311 336.76 457.959 337.334 457.701C337.914 457.443 338.55 457.314 339.241 457.314C340.337 457.314 341.195 457.59 341.816 458.141C342.437 458.686 342.76 459.438 342.783 460.399V464.776C342.783 465.649 342.894 466.344 343.117 466.859V467H341.412ZM338.714 465.761C339.224 465.761 339.707 465.629 340.164 465.365C340.621 465.102 340.952 464.759 341.157 464.337V462.386H339.883C337.891 462.386 336.894 462.969 336.894 464.135C336.894 464.645 337.064 465.043 337.404 465.33C337.744 465.617 338.181 465.761 338.714 465.761ZM345.476 462.166C345.476 460.707 345.822 459.535 346.514 458.65C347.205 457.76 348.11 457.314 349.229 457.314C350.343 457.314 351.224 457.695 351.875 458.457V453.5H353.501V467H352.007L351.928 465.98C351.277 466.777 350.372 467.176 349.212 467.176C348.11 467.176 347.211 466.725 346.514 465.822C345.822 464.92 345.476 463.742 345.476 462.289V462.166ZM347.102 462.351C347.102 463.429 347.325 464.272 347.77 464.882C348.216 465.491 348.831 465.796 349.616 465.796C350.647 465.796 351.4 465.333 351.875 464.407V460.039C351.389 459.143 350.641 458.694 349.634 458.694C348.837 458.694 348.216 459.002 347.77 459.617C347.325 460.232 347.102 461.144 347.102 462.351ZM361.832 467V454.203H365.444C366.557 454.203 367.542 454.449 368.397 454.941C369.253 455.434 369.912 456.134 370.375 457.042C370.844 457.95 371.081 458.993 371.087 460.171V460.988C371.087 462.195 370.852 463.253 370.384 464.161C369.921 465.069 369.256 465.767 368.388 466.253C367.527 466.739 366.522 466.988 365.374 467H361.832ZM363.519 455.592V465.62H365.295C366.596 465.62 367.606 465.216 368.327 464.407C369.054 463.599 369.417 462.447 369.417 460.953V460.206C369.417 458.753 369.074 457.625 368.388 456.822C367.709 456.014 366.742 455.604 365.488 455.592H363.519ZM377.876 467.176C376.587 467.176 375.538 466.754 374.729 465.91C373.921 465.061 373.516 463.927 373.516 462.509V462.21C373.516 461.267 373.695 460.426 374.053 459.688C374.416 458.943 374.92 458.363 375.564 457.947C376.215 457.525 376.918 457.314 377.674 457.314C378.91 457.314 379.871 457.722 380.556 458.536C381.242 459.351 381.585 460.517 381.585 462.034V462.711H375.142C375.166 463.648 375.438 464.407 375.96 464.987C376.487 465.562 377.155 465.849 377.964 465.849C378.538 465.849 379.024 465.731 379.423 465.497C379.821 465.263 380.17 464.952 380.469 464.565L381.462 465.339C380.665 466.563 379.469 467.176 377.876 467.176ZM377.674 458.65C377.017 458.65 376.467 458.891 376.021 459.371C375.576 459.846 375.301 460.514 375.195 461.375H379.959V461.252C379.912 460.426 379.689 459.787 379.291 459.336C378.892 458.879 378.353 458.65 377.674 458.65ZM387.029 464.794L389.384 457.49H391.046L387.635 467H386.396L382.951 457.49H384.612L387.029 464.794Z" fill="#666666"/>
<path d="M500.485 467V454.203H504.098C505.211 454.203 506.195 454.449 507.051 454.941C507.906 455.434 508.565 456.134 509.028 457.042C509.497 457.95 509.734 458.993 509.74 460.171V460.988C509.74 462.195 509.506 463.253 509.037 464.161C508.574 465.069 507.909 465.767 507.042 466.253C506.181 466.739 505.176 466.988 504.027 467H500.485ZM502.173 455.592V465.62H503.948C505.249 465.62 506.26 465.216 506.98 464.407C507.707 463.599 508.07 462.447 508.07 460.953V460.206C508.07 458.753 507.728 457.625 507.042 456.822C506.362 456.014 505.396 455.604 504.142 455.592H502.173ZM518.454 466.06C517.821 466.804 516.893 467.176 515.668 467.176C514.654 467.176 513.881 466.883 513.348 466.297C512.82 465.705 512.554 464.832 512.548 463.678V457.49H514.174V463.634C514.174 465.075 514.76 465.796 515.932 465.796C517.174 465.796 518 465.333 518.41 464.407V457.49H520.036V467H518.489L518.454 466.06ZM527.651 458.949C527.405 458.908 527.139 458.888 526.851 458.888C525.785 458.888 525.061 459.342 524.681 460.25V467H523.055V457.49H524.637L524.663 458.589C525.196 457.739 525.952 457.314 526.931 457.314C527.247 457.314 527.487 457.355 527.651 457.438V458.949ZM533.465 467.176C532.176 467.176 531.127 466.754 530.318 465.91C529.51 465.061 529.105 463.927 529.105 462.509V462.21C529.105 461.267 529.284 460.426 529.641 459.688C530.005 458.943 530.509 458.363 531.153 457.947C531.804 457.525 532.507 457.314 533.263 457.314C534.499 457.314 535.46 457.722 536.145 458.536C536.831 459.351 537.174 460.517 537.174 462.034V462.711H530.731C530.755 463.648 531.027 464.407 531.549 464.987C532.076 465.562 532.744 465.849 533.553 465.849C534.127 465.849 534.613 465.731 535.012 465.497C535.41 465.263 535.759 464.952 536.058 464.565L537.051 465.339C536.254 466.563 535.058 467.176 533.465 467.176ZM533.263 458.65C532.606 458.65 532.056 458.891 531.61 459.371C531.165 459.846 530.89 460.514 530.784 461.375H535.548V461.252C535.501 460.426 535.278 459.787 534.88 459.336C534.481 458.879 533.942 458.65 533.263 458.65ZM534.054 453.5H536.022L533.667 456.084H532.357L534.054 453.5ZM543.55 467.176C542.261 467.176 541.212 466.754 540.403 465.91C539.595 465.061 539.19 463.927 539.19 462.509V462.21C539.19 461.267 539.369 460.426 539.726 459.688C540.09 458.943 540.594 458.363 541.238 457.947C541.889 457.525 542.592 457.314 543.347 457.314C544.584 457.314 545.545 457.722 546.23 458.536C546.916 459.351 547.259 460.517 547.259 462.034V462.711H540.816C540.84 463.648 541.112 464.407 541.634 464.987C542.161 465.562 542.829 465.849 543.638 465.849C544.212 465.849 544.698 465.731 545.097 465.497C545.495 465.263 545.844 464.952 546.142 464.565L547.136 465.339C546.339 466.563 545.143 467.176 543.55 467.176ZM543.347 458.65C542.691 458.65 542.14 458.891 541.695 459.371C541.25 459.846 540.974 460.514 540.869 461.375H545.633V461.252C545.586 460.426 545.363 459.787 544.965 459.336C544.566 458.879 544.027 458.65 543.347 458.65ZM554.948 467V454.203H558.56C559.674 454.203 560.658 454.449 561.513 454.941C562.369 455.434 563.028 456.134 563.491 457.042C563.96 457.95 564.197 458.993 564.203 460.171V460.988C564.203 462.195 563.969 463.253 563.5 464.161C563.037 465.069 562.372 465.767 561.505 466.253C560.643 466.739 559.638 466.988 558.49 467H554.948ZM556.636 455.592V465.62H558.411C559.712 465.62 560.722 465.216 561.443 464.407C562.17 463.599 562.533 462.447 562.533 460.953V460.206C562.533 458.753 562.19 457.625 561.505 456.822C560.825 456.014 559.858 455.604 558.604 455.592H556.636ZM570.992 467.176C569.703 467.176 568.654 466.754 567.845 465.91C567.037 465.061 566.633 463.927 566.633 462.509V462.21C566.633 461.267 566.811 460.426 567.169 459.688C567.532 458.943 568.036 458.363 568.68 457.947C569.331 457.525 570.034 457.314 570.79 457.314C572.026 457.314 572.987 457.722 573.673 458.536C574.358 459.351 574.701 460.517 574.701 462.034V462.711H568.259C568.282 463.648 568.554 464.407 569.076 464.987C569.603 465.562 570.271 465.849 571.08 465.849C571.654 465.849 572.14 465.731 572.539 465.497C572.937 465.263 573.286 464.952 573.585 464.565L574.578 465.339C573.781 466.563 572.586 467.176 570.992 467.176ZM570.79 458.65C570.134 458.65 569.583 458.891 569.137 459.371C568.692 459.846 568.417 460.514 568.311 461.375H573.075V461.252C573.028 460.426 572.805 459.787 572.407 459.336C572.009 458.879 571.469 458.65 570.79 458.65ZM580.145 464.794L582.501 457.49H584.162L580.752 467H579.512L576.067 457.49H577.728L580.145 464.794ZM591.21 461.806C591.21 460.481 591.385 459.21 591.737 457.991C592.094 456.772 592.625 455.665 593.328 454.669C594.031 453.673 594.76 452.97 595.516 452.56L595.85 453.632C594.995 454.288 594.292 455.29 593.741 456.638C593.196 457.985 592.897 459.494 592.844 461.164L592.836 461.911C592.836 464.173 593.249 466.136 594.075 467.8C594.573 468.796 595.165 469.575 595.85 470.138L595.516 471.131C594.737 470.697 593.993 469.971 593.284 468.951C591.901 466.959 591.21 464.577 591.21 461.806ZM600.398 454.203L604.582 464.645L608.765 454.203H610.954V467H609.266V462.017L609.424 456.638L605.223 467H603.931L599.739 456.664L599.906 462.017V467H598.218V454.203H600.398ZM613.788 462.157C613.788 461.226 613.969 460.388 614.333 459.644C614.702 458.899 615.211 458.325 615.862 457.921C616.518 457.517 617.265 457.314 618.103 457.314C619.398 457.314 620.444 457.763 621.241 458.659C622.043 459.556 622.445 460.748 622.445 462.236V462.351C622.445 463.276 622.266 464.108 621.909 464.847C621.557 465.579 621.05 466.15 620.388 466.561C619.732 466.971 618.976 467.176 618.121 467.176C616.832 467.176 615.786 466.728 614.983 465.831C614.186 464.935 613.788 463.748 613.788 462.271V462.157ZM615.422 462.351C615.422 463.405 615.666 464.252 616.152 464.891C616.644 465.529 617.3 465.849 618.121 465.849C618.947 465.849 619.603 465.526 620.089 464.882C620.576 464.231 620.819 463.323 620.819 462.157C620.819 461.114 620.57 460.271 620.072 459.626C619.58 458.976 618.923 458.65 618.103 458.65C617.3 458.65 616.653 458.97 616.161 459.608C615.668 460.247 615.422 461.161 615.422 462.351ZM626.791 467H625.165V457.49H626.791V467ZM625.033 454.968C625.033 454.704 625.112 454.481 625.27 454.3C625.434 454.118 625.674 454.027 625.991 454.027C626.307 454.027 626.547 454.118 626.711 454.3C626.875 454.481 626.957 454.704 626.957 454.968C626.957 455.231 626.875 455.451 626.711 455.627C626.547 455.803 626.307 455.891 625.991 455.891C625.674 455.891 625.434 455.803 625.27 455.627C625.112 455.451 625.033 455.231 625.033 454.968ZM635.478 464.478C635.478 464.038 635.311 463.698 634.977 463.458C634.649 463.212 634.072 463.001 633.246 462.825C632.425 462.649 631.772 462.438 631.286 462.192C630.805 461.946 630.448 461.653 630.213 461.313C629.985 460.974 629.871 460.569 629.871 460.101C629.871 459.321 630.199 458.662 630.855 458.123C631.517 457.584 632.361 457.314 633.386 457.314C634.464 457.314 635.337 457.593 636.005 458.149C636.679 458.706 637.016 459.418 637.016 460.285H635.381C635.381 459.84 635.191 459.456 634.81 459.134C634.435 458.812 633.96 458.65 633.386 458.65C632.794 458.65 632.331 458.779 631.997 459.037C631.664 459.295 631.497 459.632 631.497 460.048C631.497 460.44 631.652 460.736 631.962 460.936C632.273 461.135 632.832 461.325 633.641 461.507C634.456 461.688 635.115 461.905 635.619 462.157C636.122 462.409 636.495 462.714 636.735 463.071C636.981 463.423 637.104 463.854 637.104 464.363C637.104 465.213 636.764 465.896 636.084 466.411C635.405 466.921 634.523 467.176 633.439 467.176C632.677 467.176 632.003 467.041 631.417 466.771C630.831 466.502 630.372 466.127 630.038 465.646C629.709 465.16 629.545 464.636 629.545 464.073H631.171C631.201 464.618 631.417 465.052 631.822 465.374C632.232 465.69 632.771 465.849 633.439 465.849C634.054 465.849 634.546 465.726 634.915 465.479C635.29 465.228 635.478 464.894 635.478 464.478ZM643.515 461.894C643.515 463.2 643.342 464.454 642.996 465.655C642.657 466.851 642.132 467.955 641.423 468.969C640.72 469.982 639.982 470.703 639.208 471.131L638.866 470.138C639.768 469.446 640.492 468.374 641.037 466.921C641.587 465.462 641.869 463.845 641.88 462.069V461.788C641.88 460.558 641.751 459.415 641.494 458.36C641.236 457.3 640.875 456.351 640.413 455.513C639.955 454.675 639.44 454.021 638.866 453.553L639.208 452.56C639.982 452.987 640.717 453.702 641.414 454.704C642.118 455.706 642.642 456.811 642.988 458.018C643.339 459.225 643.515 460.517 643.515 461.894Z" fill="#666666"/>
<path d="M747.179 461.823H744.173V467H742.477V454.203H746.713C748.154 454.203 749.262 454.531 750.035 455.188C750.814 455.844 751.204 456.799 751.204 458.053C751.204 458.85 750.987 459.544 750.554 460.136C750.126 460.728 749.528 461.17 748.761 461.463L751.767 466.895V467H749.956L747.179 461.823ZM744.173 460.443H746.766C747.604 460.443 748.269 460.227 748.761 459.793C749.259 459.359 749.508 458.779 749.508 458.053C749.508 457.262 749.271 456.655 748.796 456.233C748.327 455.812 747.647 455.598 746.757 455.592H744.173V460.443ZM763.961 461.015C763.961 462.269 763.75 463.364 763.328 464.302C762.906 465.233 762.309 465.945 761.535 466.438C760.762 466.93 759.859 467.176 758.828 467.176C757.82 467.176 756.927 466.93 756.147 466.438C755.368 465.939 754.762 465.233 754.328 464.319C753.9 463.399 753.681 462.336 753.669 461.129V460.206C753.669 458.976 753.883 457.889 754.311 456.945C754.738 456.002 755.342 455.281 756.121 454.783C756.906 454.279 757.803 454.027 758.811 454.027C759.836 454.027 760.738 454.276 761.518 454.774C762.303 455.267 762.906 455.984 763.328 456.928C763.75 457.865 763.961 458.958 763.961 460.206V461.015ZM762.282 460.188C762.282 458.671 761.977 457.508 761.368 456.699C760.759 455.885 759.906 455.478 758.811 455.478C757.744 455.478 756.903 455.885 756.288 456.699C755.679 457.508 755.365 458.633 755.348 460.074V461.015C755.348 462.485 755.655 463.643 756.27 464.486C756.892 465.324 757.744 465.743 758.828 465.743C759.918 465.743 760.762 465.348 761.359 464.557C761.957 463.76 762.265 462.62 762.282 461.138V460.188ZM768.843 467H767.155V454.203H768.843V467ZM777.165 461.806C777.165 460.481 777.341 459.21 777.692 457.991C778.05 456.772 778.58 455.665 779.283 454.669C779.986 453.673 780.716 452.97 781.472 452.56L781.806 453.632C780.95 454.288 780.247 455.29 779.696 456.638C779.151 457.985 778.852 459.494 778.8 461.164L778.791 461.911C778.791 464.173 779.204 466.136 780.03 467.8C780.528 468.796 781.12 469.575 781.806 470.138L781.472 471.131C780.692 470.697 779.948 469.971 779.239 468.951C777.856 466.959 777.165 464.577 777.165 461.806ZM786.353 454.203L790.537 464.645L794.721 454.203H796.909V467H795.221V462.017L795.38 456.638L791.179 467H789.887L785.694 456.664L785.861 462.017V467H784.174V454.203H786.353ZM799.743 462.157C799.743 461.226 799.925 460.388 800.288 459.644C800.657 458.899 801.167 458.325 801.817 457.921C802.473 457.517 803.22 457.314 804.058 457.314C805.353 457.314 806.399 457.763 807.196 458.659C807.999 459.556 808.4 460.748 808.4 462.236V462.351C808.4 463.276 808.221 464.108 807.864 464.847C807.512 465.579 807.006 466.15 806.344 466.561C805.687 466.971 804.931 467.176 804.076 467.176C802.787 467.176 801.741 466.728 800.938 465.831C800.141 464.935 799.743 463.748 799.743 462.271V462.157ZM801.378 462.351C801.378 463.405 801.621 464.252 802.107 464.891C802.599 465.529 803.256 465.849 804.076 465.849C804.902 465.849 805.558 465.526 806.045 464.882C806.531 464.231 806.774 463.323 806.774 462.157C806.774 461.114 806.525 460.271 806.027 459.626C805.535 458.976 804.879 458.65 804.058 458.65C803.256 458.65 802.608 458.97 802.116 459.608C801.624 460.247 801.378 461.161 801.378 462.351ZM812.746 467H811.12V457.49H812.746V467ZM810.988 454.968C810.988 454.704 811.067 454.481 811.225 454.3C811.389 454.118 811.63 454.027 811.946 454.027C812.262 454.027 812.503 454.118 812.667 454.3C812.831 454.481 812.913 454.704 812.913 454.968C812.913 455.231 812.831 455.451 812.667 455.627C812.503 455.803 812.262 455.891 811.946 455.891C811.63 455.891 811.389 455.803 811.225 455.627C811.067 455.451 810.988 455.231 810.988 454.968ZM821.433 464.478C821.433 464.038 821.266 463.698 820.932 463.458C820.604 463.212 820.027 463.001 819.201 462.825C818.381 462.649 817.727 462.438 817.241 462.192C816.76 461.946 816.403 461.653 816.169 461.313C815.94 460.974 815.826 460.569 815.826 460.101C815.826 459.321 816.154 458.662 816.81 458.123C817.472 457.584 818.316 457.314 819.341 457.314C820.42 457.314 821.293 457.593 821.961 458.149C822.634 458.706 822.971 459.418 822.971 460.285H821.337C821.337 459.84 821.146 459.456 820.765 459.134C820.39 458.812 819.916 458.65 819.341 458.65C818.75 458.65 818.287 458.779 817.953 459.037C817.619 459.295 817.452 459.632 817.452 460.048C817.452 460.44 817.607 460.736 817.918 460.936C818.228 461.135 818.788 461.325 819.596 461.507C820.411 461.688 821.07 461.905 821.574 462.157C822.078 462.409 822.45 462.714 822.69 463.071C822.936 463.423 823.059 463.854 823.059 464.363C823.059 465.213 822.719 465.896 822.04 466.411C821.36 466.921 820.478 467.176 819.394 467.176C818.632 467.176 817.959 467.041 817.373 466.771C816.787 466.502 816.327 466.127 815.993 465.646C815.665 465.16 815.501 464.636 815.501 464.073H817.127C817.156 464.618 817.373 465.052 817.777 465.374C818.187 465.69 818.726 465.849 819.394 465.849C820.009 465.849 820.502 465.726 820.871 465.479C821.246 465.228 821.433 464.894 821.433 464.478ZM829.47 461.894C829.47 463.2 829.298 464.454 828.952 465.655C828.612 466.851 828.088 467.955 827.379 468.969C826.675 469.982 825.937 470.703 825.164 471.131L824.821 470.138C825.723 469.446 826.447 468.374 826.992 466.921C827.543 465.462 827.824 463.845 827.836 462.069V461.788C827.836 460.558 827.707 459.415 827.449 458.36C827.191 457.3 826.831 456.351 826.368 455.513C825.911 454.675 825.395 454.021 824.821 453.553L825.164 452.56C825.937 452.987 826.673 453.702 827.37 454.704C828.073 455.706 828.597 456.811 828.943 458.018C829.295 459.225 829.47 460.517 829.47 461.894Z" fill="#666666"/>
<path d="M10.1402 343H1.75543V341.831L6.18512 336.909C6.84137 336.165 7.29254 335.562 7.53863 335.099C7.79059 334.63 7.91656 334.146 7.91656 333.648C7.91656 332.98 7.71441 332.433 7.31012 332.005C6.90582 331.577 6.36676 331.363 5.69293 331.363C4.88434 331.363 4.25445 331.595 3.80328 332.058C3.35797 332.515 3.13531 333.153 3.13531 333.974H1.50934C1.50934 332.796 1.88727 331.844 2.64313 331.117C3.40484 330.391 4.42145 330.027 5.69293 330.027C6.88238 330.027 7.82281 330.341 8.51422 330.968C9.20563 331.589 9.55133 332.418 9.55133 333.455C9.55133 334.715 8.74859 336.215 7.14313 337.955L3.71539 341.673H10.1402V343ZM11.2571 345.549L10.3343 344.916C10.885 344.148 11.1721 343.357 11.1956 342.543V341.075H12.7864V342.35C12.7864 342.941 12.6399 343.533 12.347 344.125C12.0598 344.717 11.6966 345.191 11.2571 345.549ZM14.7031 336.584L15.3535 330.203H21.9102V331.706H16.7334L16.3467 335.195C16.9736 334.826 17.6855 334.642 18.4824 334.642C19.6484 334.642 20.5742 335.028 21.2598 335.802C21.9453 336.569 22.2881 337.609 22.2881 338.922C22.2881 340.24 21.9307 341.28 21.2158 342.042C20.5068 342.798 19.5137 343.176 18.2363 343.176C17.1055 343.176 16.1826 342.862 15.4678 342.235C14.7529 341.608 14.3457 340.741 14.2461 339.634H15.7842C15.8838 340.366 16.1445 340.92 16.5664 341.295C16.9883 341.664 17.5449 341.849 18.2363 341.849C18.9922 341.849 19.584 341.591 20.0117 341.075C20.4453 340.56 20.6621 339.848 20.6621 338.939C20.6621 338.084 20.4277 337.398 19.959 336.883C19.4961 336.361 18.8779 336.101 18.1045 336.101C17.3955 336.101 16.8389 336.256 16.4346 336.566L16.0039 336.918L14.7031 336.584Z" fill="#666666"/>
<path d="M15.7031 227.584L16.3535 221.203H22.9102V222.706H17.7334L17.3467 226.195C17.9736 225.826 18.6855 225.642 19.4824 225.642C20.6484 225.642 21.5742 226.028 22.2598 226.802C22.9453 227.569 23.2881 228.609 23.2881 229.922C23.2881 231.24 22.9307 232.28 22.2158 233.042C21.5068 233.798 20.5137 234.176 19.2363 234.176C18.1055 234.176 17.1826 233.862 16.4678 233.235C15.7529 232.608 15.3457 231.741 15.2461 230.634H16.7842C16.8838 231.366 17.1445 231.92 17.5664 232.295C17.9883 232.664 18.5449 232.849 19.2363 232.849C19.9922 232.849 20.584 232.591 21.0117 232.075C21.4453 231.56 21.6621 230.848 21.6621 229.939C21.6621 229.084 21.4277 228.398 20.959 227.883C20.4961 227.361 19.8779 227.101 19.1045 227.101C18.3955 227.101 17.8389 227.256 17.4346 227.566L17.0039 227.918L15.7031 227.584Z" fill="#666666"/>
<path d="M10.0171 114.117L4.71734 126H3.01227L8.29449 114.539H1.36871V113.203H10.0171V114.117ZM11.2571 128.549L10.3343 127.916C10.885 127.148 11.1721 126.357 11.1956 125.543V124.075H12.7864V125.35C12.7864 125.941 12.6399 126.533 12.347 127.125C12.0598 127.717 11.6966 128.191 11.2571 128.549ZM14.7031 119.584L15.3535 113.203H21.9102V114.706H16.7334L16.3467 118.195C16.9736 117.826 17.6855 117.642 18.4824 117.642C19.6484 117.642 20.5742 118.028 21.2598 118.802C21.9453 119.569 22.2881 120.609 22.2881 121.922C22.2881 123.24 21.9307 124.28 21.2158 125.042C20.5068 125.798 19.5137 126.176 18.2363 126.176C17.1055 126.176 16.1826 125.862 15.4678 125.235C14.7529 124.608 14.3457 123.741 14.2461 122.634H15.7842C15.8838 123.366 16.1445 123.92 16.5664 124.295C16.9883 124.664 17.5449 124.849 18.2363 124.849C18.9922 124.849 19.584 124.591 20.0117 124.075C20.4453 123.56 20.6621 122.848 20.6621 121.939C20.6621 121.084 20.4277 120.398 19.959 119.883C19.4961 119.361 18.8779 119.101 18.1045 119.101C17.3955 119.101 16.8389 119.256 16.4346 119.566L16.0039 119.918L14.7031 119.584Z" fill="#666666"/>
<path d="M9.91238 17H8.27762V6.16309L4.9993 7.36719V5.89062L9.6575 4.1416H9.91238V17ZM21.9805 11.542C21.9805 13.4463 21.6553 14.8613 21.0049 15.7871C20.3545 16.7129 19.3379 17.1758 17.9551 17.1758C16.5898 17.1758 15.5791 16.7246 14.9229 15.8223C14.2666 14.9141 13.9268 13.5605 13.9033 11.7617V9.59082C13.9033 7.70996 14.2285 6.3125 14.8789 5.39844C15.5293 4.48438 16.5488 4.02734 17.9375 4.02734C19.3145 4.02734 20.3281 4.46973 20.9785 5.35449C21.6289 6.2334 21.9629 7.59277 21.9805 9.43262V11.542ZM20.3545 9.31836C20.3545 7.94141 20.1611 6.93945 19.7744 6.3125C19.3877 5.67969 18.7754 5.36328 17.9375 5.36328C17.1055 5.36328 16.499 5.67676 16.1182 6.30371C15.7373 6.93066 15.541 7.89453 15.5293 9.19531V11.7969C15.5293 13.1797 15.7285 14.2021 16.127 14.8643C16.5312 15.5205 17.1406 15.8486 17.9551 15.8486C18.7578 15.8486 19.3525 15.5381 19.7393 14.917C20.1318 14.2959 20.3369 13.3174 20.3545 11.9814V9.31836Z" fill="#666666"/>
</svg>
